<?xml version="1.0" encoding="UTF-8" standalone="no"?>
<!DOCTYPE svg PUBLIC "-//W3C//DTD SVG 1.1//EN" "http://www.w3.org/Graphics/SVG/1.1/DTD/svg11.dtd">
<svg width="100%" height="100%" viewBox="0 0 4437 6408" version="1.1" xmlns="http://www.w3.org/2000/svg" xmlns:xlink="http://www.w3.org/1999/xlink" xml:space="preserve" xmlns:serif="http://www.serif.com/" style="fill-rule:evenodd;clip-rule:evenodd;stroke-linejoin:round;stroke-miterlimit:2;">
    <g id="Artboard2" transform="matrix(0.836414,0,0,0.800885,-4.37881,19.3666)">
        <rect x="5.235" y="-24.182" width="5304.17" height="8000" style="fill:none;"/>
        <g transform="matrix(4.98158,0,0,5.20258,2572.44,4243.65)">
            <g transform="matrix(1,0,0,1,-636.5,-960)">
                <path d="M653.54,143.43C360.9,143.43 123.67,380.66 123.67,673.3C123.67,790.18 161.54,898.19 225.64,985.81L653.54,1676.04L1081.44,985.81C1145.54,898.193 1183.41,790.18 1183.41,673.3C1183.41,380.66 946.18,143.43 653.54,143.43ZM653.54,896.85C507.04,896.85 388.28,778.09 388.28,631.59C388.28,485.09 507.04,366.33 653.54,366.33C800.04,366.33 918.8,485.09 918.8,631.59C918.8,778.09 800.04,896.85 653.54,896.85Z" style="fill:rgb(0,100,49);fill-rule:nonzero;"/>
            </g>
        </g>
    </g>
</svg>
